<mxfile host="app.diagrams.net" agent="Mozilla/5.0 (Windows NT 10.0; Win64; x64; rv:128.0) Gecko/20100101 Firefox/128.0" version="24.7.4">
  <diagram id="C5RBs43oDa-KdzZeNtuy" name="Page-1">
    <mxGraphModel dx="1050" dy="577" grid="1" gridSize="10" guides="1" tooltips="1" connect="1" arrows="1" fold="1" page="1" pageScale="1" pageWidth="827" pageHeight="1169" math="0" shadow="0">
      <root>
        <mxCell id="WIyWlLk6GJQsqaUBKTNV-0" />
        <mxCell id="WIyWlLk6GJQsqaUBKTNV-1" parent="WIyWlLk6GJQsqaUBKTNV-0" />
        <mxCell id="QB1ZzylPtEArZ7ZQtuXs-9" value="" style="edgeStyle=orthogonalEdgeStyle;rounded=0;orthogonalLoop=1;jettySize=auto;html=1;" edge="1" parent="WIyWlLk6GJQsqaUBKTNV-1" source="QB1ZzylPtEArZ7ZQtuXs-3" target="QB1ZzylPtEArZ7ZQtuXs-8">
          <mxGeometry relative="1" as="geometry" />
        </mxCell>
        <mxCell id="QB1ZzylPtEArZ7ZQtuXs-3" value="&lt;div&gt;validate_key_int&lt;/div&gt;&lt;div&gt;object: event&lt;br&gt;&lt;/div&gt;" style="strokeWidth=2;html=1;shape=mxgraph.flowchart.terminator;whiteSpace=wrap;" vertex="1" parent="WIyWlLk6GJQsqaUBKTNV-1">
          <mxGeometry x="90" y="10" width="100" height="60" as="geometry" />
        </mxCell>
        <mxCell id="QB1ZzylPtEArZ7ZQtuXs-4" value="end" style="strokeWidth=2;html=1;shape=mxgraph.flowchart.terminator;whiteSpace=wrap;" vertex="1" parent="WIyWlLk6GJQsqaUBKTNV-1">
          <mxGeometry x="90" y="380" width="100" height="60" as="geometry" />
        </mxCell>
        <mxCell id="QB1ZzylPtEArZ7ZQtuXs-11" value="" style="edgeStyle=orthogonalEdgeStyle;rounded=0;orthogonalLoop=1;jettySize=auto;html=1;" edge="1" parent="WIyWlLk6GJQsqaUBKTNV-1" source="QB1ZzylPtEArZ7ZQtuXs-8" target="QB1ZzylPtEArZ7ZQtuXs-10">
          <mxGeometry relative="1" as="geometry" />
        </mxCell>
        <mxCell id="QB1ZzylPtEArZ7ZQtuXs-8" value="get input key from event" style="whiteSpace=wrap;html=1;strokeWidth=2;" vertex="1" parent="WIyWlLk6GJQsqaUBKTNV-1">
          <mxGeometry x="80" y="100" width="120" height="60" as="geometry" />
        </mxCell>
        <mxCell id="QB1ZzylPtEArZ7ZQtuXs-12" value="yes" style="edgeStyle=orthogonalEdgeStyle;rounded=0;orthogonalLoop=1;jettySize=auto;html=1;" edge="1" parent="WIyWlLk6GJQsqaUBKTNV-1" source="QB1ZzylPtEArZ7ZQtuXs-10" target="QB1ZzylPtEArZ7ZQtuXs-4">
          <mxGeometry relative="1" as="geometry" />
        </mxCell>
        <mxCell id="QB1ZzylPtEArZ7ZQtuXs-14" value="no" style="edgeStyle=orthogonalEdgeStyle;rounded=0;orthogonalLoop=1;jettySize=auto;html=1;" edge="1" parent="WIyWlLk6GJQsqaUBKTNV-1" source="QB1ZzylPtEArZ7ZQtuXs-10" target="QB1ZzylPtEArZ7ZQtuXs-13">
          <mxGeometry relative="1" as="geometry">
            <Array as="points">
              <mxPoint x="255" y="250" />
            </Array>
          </mxGeometry>
        </mxCell>
        <mxCell id="QB1ZzylPtEArZ7ZQtuXs-10" value="&lt;div&gt;is input key Backspace,&lt;/div&gt;&lt;div&gt;&amp;nbsp;Delete, Return, Left, Rght,&amp;nbsp;&lt;/div&gt;&lt;div&gt;or a digit?&lt;/div&gt;" style="rhombus;whiteSpace=wrap;html=1;strokeWidth=2;" vertex="1" parent="WIyWlLk6GJQsqaUBKTNV-1">
          <mxGeometry x="50" y="200" width="180" height="100" as="geometry" />
        </mxCell>
        <mxCell id="QB1ZzylPtEArZ7ZQtuXs-13" value="&lt;div&gt;return &#39;break&#39;&lt;/div&gt;&lt;div&gt;which prevents the key being input&lt;br&gt;&lt;/div&gt;" style="strokeWidth=2;html=1;shape=mxgraph.flowchart.terminator;whiteSpace=wrap;" vertex="1" parent="WIyWlLk6GJQsqaUBKTNV-1">
          <mxGeometry x="200" y="380" width="110" height="60" as="geometry" />
        </mxCell>
        <mxCell id="QB1ZzylPtEArZ7ZQtuXs-15" value="" style="edgeStyle=orthogonalEdgeStyle;rounded=0;orthogonalLoop=1;jettySize=auto;html=1;" edge="1" parent="WIyWlLk6GJQsqaUBKTNV-1" source="QB1ZzylPtEArZ7ZQtuXs-16" target="QB1ZzylPtEArZ7ZQtuXs-19">
          <mxGeometry relative="1" as="geometry" />
        </mxCell>
        <mxCell id="QB1ZzylPtEArZ7ZQtuXs-16" value="&lt;div&gt;validate_date_key&lt;/div&gt;&lt;div&gt;object: event&lt;br&gt;&lt;/div&gt;" style="strokeWidth=2;html=1;shape=mxgraph.flowchart.terminator;whiteSpace=wrap;" vertex="1" parent="WIyWlLk6GJQsqaUBKTNV-1">
          <mxGeometry x="380" y="10" width="100" height="60" as="geometry" />
        </mxCell>
        <mxCell id="QB1ZzylPtEArZ7ZQtuXs-17" value="end" style="strokeWidth=2;html=1;shape=mxgraph.flowchart.terminator;whiteSpace=wrap;" vertex="1" parent="WIyWlLk6GJQsqaUBKTNV-1">
          <mxGeometry x="380" y="380" width="100" height="60" as="geometry" />
        </mxCell>
        <mxCell id="QB1ZzylPtEArZ7ZQtuXs-18" value="" style="edgeStyle=orthogonalEdgeStyle;rounded=0;orthogonalLoop=1;jettySize=auto;html=1;" edge="1" parent="WIyWlLk6GJQsqaUBKTNV-1" source="QB1ZzylPtEArZ7ZQtuXs-19" target="QB1ZzylPtEArZ7ZQtuXs-22">
          <mxGeometry relative="1" as="geometry" />
        </mxCell>
        <mxCell id="QB1ZzylPtEArZ7ZQtuXs-19" value="get input key from event" style="whiteSpace=wrap;html=1;strokeWidth=2;" vertex="1" parent="WIyWlLk6GJQsqaUBKTNV-1">
          <mxGeometry x="370" y="100" width="120" height="60" as="geometry" />
        </mxCell>
        <mxCell id="QB1ZzylPtEArZ7ZQtuXs-20" value="yes" style="edgeStyle=orthogonalEdgeStyle;rounded=0;orthogonalLoop=1;jettySize=auto;html=1;" edge="1" parent="WIyWlLk6GJQsqaUBKTNV-1" source="QB1ZzylPtEArZ7ZQtuXs-22" target="QB1ZzylPtEArZ7ZQtuXs-17">
          <mxGeometry relative="1" as="geometry" />
        </mxCell>
        <mxCell id="QB1ZzylPtEArZ7ZQtuXs-21" value="no" style="edgeStyle=orthogonalEdgeStyle;rounded=0;orthogonalLoop=1;jettySize=auto;html=1;" edge="1" parent="WIyWlLk6GJQsqaUBKTNV-1" source="QB1ZzylPtEArZ7ZQtuXs-22" target="QB1ZzylPtEArZ7ZQtuXs-23">
          <mxGeometry relative="1" as="geometry">
            <Array as="points">
              <mxPoint x="545" y="250" />
            </Array>
          </mxGeometry>
        </mxCell>
        <mxCell id="QB1ZzylPtEArZ7ZQtuXs-22" value="&lt;div&gt;is input key Backspace,&lt;/div&gt;&lt;div&gt;&amp;nbsp;Delete, Return, Left, Rght, Slash &lt;br&gt;&lt;/div&gt;&lt;div&gt;or a digit?&lt;/div&gt;" style="rhombus;whiteSpace=wrap;html=1;strokeWidth=2;" vertex="1" parent="WIyWlLk6GJQsqaUBKTNV-1">
          <mxGeometry x="330" y="200" width="200" height="100" as="geometry" />
        </mxCell>
        <mxCell id="QB1ZzylPtEArZ7ZQtuXs-23" value="&lt;div&gt;return &#39;break&#39;&lt;/div&gt;&lt;div&gt;which prevents the key being input&lt;br&gt;&lt;/div&gt;" style="strokeWidth=2;html=1;shape=mxgraph.flowchart.terminator;whiteSpace=wrap;" vertex="1" parent="WIyWlLk6GJQsqaUBKTNV-1">
          <mxGeometry x="490" y="380" width="110" height="60" as="geometry" />
        </mxCell>
        <mxCell id="QB1ZzylPtEArZ7ZQtuXs-40" value="" style="edgeStyle=orthogonalEdgeStyle;rounded=0;orthogonalLoop=1;jettySize=auto;html=1;" edge="1" parent="WIyWlLk6GJQsqaUBKTNV-1" source="QB1ZzylPtEArZ7ZQtuXs-41" target="QB1ZzylPtEArZ7ZQtuXs-44">
          <mxGeometry relative="1" as="geometry" />
        </mxCell>
        <mxCell id="QB1ZzylPtEArZ7ZQtuXs-41" value="&lt;div&gt;validate_address_key&lt;/div&gt;&lt;div&gt;object: event&lt;br&gt;&lt;/div&gt;" style="strokeWidth=2;html=1;shape=mxgraph.flowchart.terminator;whiteSpace=wrap;" vertex="1" parent="WIyWlLk6GJQsqaUBKTNV-1">
          <mxGeometry x="620" y="10" width="120" height="60" as="geometry" />
        </mxCell>
        <mxCell id="QB1ZzylPtEArZ7ZQtuXs-42" value="end" style="strokeWidth=2;html=1;shape=mxgraph.flowchart.terminator;whiteSpace=wrap;" vertex="1" parent="WIyWlLk6GJQsqaUBKTNV-1">
          <mxGeometry x="630" y="380" width="100" height="60" as="geometry" />
        </mxCell>
        <mxCell id="QB1ZzylPtEArZ7ZQtuXs-43" value="" style="edgeStyle=orthogonalEdgeStyle;rounded=0;orthogonalLoop=1;jettySize=auto;html=1;" edge="1" parent="WIyWlLk6GJQsqaUBKTNV-1" source="QB1ZzylPtEArZ7ZQtuXs-44" target="QB1ZzylPtEArZ7ZQtuXs-47">
          <mxGeometry relative="1" as="geometry" />
        </mxCell>
        <mxCell id="QB1ZzylPtEArZ7ZQtuXs-44" value="get input key from event" style="whiteSpace=wrap;html=1;strokeWidth=2;" vertex="1" parent="WIyWlLk6GJQsqaUBKTNV-1">
          <mxGeometry x="620" y="100" width="120" height="60" as="geometry" />
        </mxCell>
        <mxCell id="QB1ZzylPtEArZ7ZQtuXs-45" value="yes" style="edgeStyle=orthogonalEdgeStyle;rounded=0;orthogonalLoop=1;jettySize=auto;html=1;" edge="1" parent="WIyWlLk6GJQsqaUBKTNV-1" source="QB1ZzylPtEArZ7ZQtuXs-47" target="QB1ZzylPtEArZ7ZQtuXs-42">
          <mxGeometry relative="1" as="geometry" />
        </mxCell>
        <mxCell id="QB1ZzylPtEArZ7ZQtuXs-46" value="no" style="edgeStyle=orthogonalEdgeStyle;rounded=0;orthogonalLoop=1;jettySize=auto;html=1;" edge="1" parent="WIyWlLk6GJQsqaUBKTNV-1" source="QB1ZzylPtEArZ7ZQtuXs-47" target="QB1ZzylPtEArZ7ZQtuXs-48">
          <mxGeometry relative="1" as="geometry">
            <Array as="points">
              <mxPoint x="850" y="250" />
            </Array>
          </mxGeometry>
        </mxCell>
        <mxCell id="QB1ZzylPtEArZ7ZQtuXs-47" value="&lt;div&gt;is input key Backspace,&lt;/div&gt;&lt;div&gt;&amp;nbsp;Delete, Return, Left, Rght, S,&lt;br&gt;&lt;/div&gt;&lt;div&gt;&amp;nbsp;comma, hash, dash,&lt;/div&gt;&lt;div&gt;&amp;nbsp;or a digit?&lt;/div&gt;" style="rhombus;whiteSpace=wrap;html=1;strokeWidth=2;" vertex="1" parent="WIyWlLk6GJQsqaUBKTNV-1">
          <mxGeometry x="560" y="200" width="240" height="100" as="geometry" />
        </mxCell>
        <mxCell id="QB1ZzylPtEArZ7ZQtuXs-48" value="&lt;div&gt;return &#39;break&#39;&lt;/div&gt;&lt;div&gt;which prevents the key being input&lt;br&gt;&lt;/div&gt;" style="strokeWidth=2;html=1;shape=mxgraph.flowchart.terminator;whiteSpace=wrap;" vertex="1" parent="WIyWlLk6GJQsqaUBKTNV-1">
          <mxGeometry x="800" y="370" width="110" height="60" as="geometry" />
        </mxCell>
        <mxCell id="QB1ZzylPtEArZ7ZQtuXs-67" value="" style="edgeStyle=orthogonalEdgeStyle;rounded=0;orthogonalLoop=1;jettySize=auto;html=1;" edge="1" parent="WIyWlLk6GJQsqaUBKTNV-1" source="QB1ZzylPtEArZ7ZQtuXs-68" target="QB1ZzylPtEArZ7ZQtuXs-71">
          <mxGeometry relative="1" as="geometry" />
        </mxCell>
        <mxCell id="QB1ZzylPtEArZ7ZQtuXs-68" value="&lt;div&gt;validate_card_no_length&lt;/div&gt;" style="strokeWidth=2;html=1;shape=mxgraph.flowchart.terminator;whiteSpace=wrap;" vertex="1" parent="WIyWlLk6GJQsqaUBKTNV-1">
          <mxGeometry x="70" y="480" width="140" height="60" as="geometry" />
        </mxCell>
        <mxCell id="QB1ZzylPtEArZ7ZQtuXs-69" value="end" style="strokeWidth=2;html=1;shape=mxgraph.flowchart.terminator;whiteSpace=wrap;" vertex="1" parent="WIyWlLk6GJQsqaUBKTNV-1">
          <mxGeometry x="90" y="850" width="100" height="60" as="geometry" />
        </mxCell>
        <mxCell id="QB1ZzylPtEArZ7ZQtuXs-70" value="" style="edgeStyle=orthogonalEdgeStyle;rounded=0;orthogonalLoop=1;jettySize=auto;html=1;" edge="1" parent="WIyWlLk6GJQsqaUBKTNV-1" source="QB1ZzylPtEArZ7ZQtuXs-71" target="QB1ZzylPtEArZ7ZQtuXs-74">
          <mxGeometry relative="1" as="geometry" />
        </mxCell>
        <mxCell id="QB1ZzylPtEArZ7ZQtuXs-71" value="get lenght of cardEntry" style="whiteSpace=wrap;html=1;strokeWidth=2;" vertex="1" parent="WIyWlLk6GJQsqaUBKTNV-1">
          <mxGeometry x="80" y="570" width="120" height="60" as="geometry" />
        </mxCell>
        <mxCell id="QB1ZzylPtEArZ7ZQtuXs-72" value="no" style="edgeStyle=orthogonalEdgeStyle;rounded=0;orthogonalLoop=1;jettySize=auto;html=1;" edge="1" parent="WIyWlLk6GJQsqaUBKTNV-1" source="QB1ZzylPtEArZ7ZQtuXs-74" target="QB1ZzylPtEArZ7ZQtuXs-69">
          <mxGeometry relative="1" as="geometry" />
        </mxCell>
        <mxCell id="QB1ZzylPtEArZ7ZQtuXs-77" value="yes" style="edgeStyle=orthogonalEdgeStyle;rounded=0;orthogonalLoop=1;jettySize=auto;html=1;" edge="1" parent="WIyWlLk6GJQsqaUBKTNV-1" source="QB1ZzylPtEArZ7ZQtuXs-74" target="QB1ZzylPtEArZ7ZQtuXs-76">
          <mxGeometry relative="1" as="geometry" />
        </mxCell>
        <mxCell id="QB1ZzylPtEArZ7ZQtuXs-74" value="&lt;div&gt;is length of cardEntry more&lt;/div&gt;&lt;div&gt;&amp;nbsp;than 16?&lt;/div&gt;" style="rhombus;whiteSpace=wrap;html=1;strokeWidth=2;" vertex="1" parent="WIyWlLk6GJQsqaUBKTNV-1">
          <mxGeometry x="50" y="670" width="180" height="100" as="geometry" />
        </mxCell>
        <mxCell id="QB1ZzylPtEArZ7ZQtuXs-79" style="edgeStyle=orthogonalEdgeStyle;rounded=0;orthogonalLoop=1;jettySize=auto;html=1;" edge="1" parent="WIyWlLk6GJQsqaUBKTNV-1" source="QB1ZzylPtEArZ7ZQtuXs-76">
          <mxGeometry relative="1" as="geometry">
            <mxPoint x="150" y="820" as="targetPoint" />
            <Array as="points">
              <mxPoint x="350" y="820" />
              <mxPoint x="301" y="820" />
            </Array>
          </mxGeometry>
        </mxCell>
        <mxCell id="QB1ZzylPtEArZ7ZQtuXs-76" value="delete all characters after the 16th one" style="shape=parallelogram;perimeter=parallelogramPerimeter;whiteSpace=wrap;html=1;fixedSize=1;strokeWidth=2;" vertex="1" parent="WIyWlLk6GJQsqaUBKTNV-1">
          <mxGeometry x="280" y="690" width="120" height="60" as="geometry" />
        </mxCell>
        <mxCell id="QB1ZzylPtEArZ7ZQtuXs-80" value="" style="edgeStyle=orthogonalEdgeStyle;rounded=0;orthogonalLoop=1;jettySize=auto;html=1;" edge="1" parent="WIyWlLk6GJQsqaUBKTNV-1" source="QB1ZzylPtEArZ7ZQtuXs-81" target="QB1ZzylPtEArZ7ZQtuXs-84">
          <mxGeometry relative="1" as="geometry" />
        </mxCell>
        <mxCell id="QB1ZzylPtEArZ7ZQtuXs-81" value="&lt;div&gt;validate_cvv_length&lt;/div&gt;" style="strokeWidth=2;html=1;shape=mxgraph.flowchart.terminator;whiteSpace=wrap;" vertex="1" parent="WIyWlLk6GJQsqaUBKTNV-1">
          <mxGeometry x="440" y="480" width="140" height="60" as="geometry" />
        </mxCell>
        <mxCell id="QB1ZzylPtEArZ7ZQtuXs-82" value="end" style="strokeWidth=2;html=1;shape=mxgraph.flowchart.terminator;whiteSpace=wrap;" vertex="1" parent="WIyWlLk6GJQsqaUBKTNV-1">
          <mxGeometry x="460" y="850" width="100" height="60" as="geometry" />
        </mxCell>
        <mxCell id="QB1ZzylPtEArZ7ZQtuXs-83" value="" style="edgeStyle=orthogonalEdgeStyle;rounded=0;orthogonalLoop=1;jettySize=auto;html=1;" edge="1" parent="WIyWlLk6GJQsqaUBKTNV-1" source="QB1ZzylPtEArZ7ZQtuXs-84" target="QB1ZzylPtEArZ7ZQtuXs-87">
          <mxGeometry relative="1" as="geometry" />
        </mxCell>
        <mxCell id="QB1ZzylPtEArZ7ZQtuXs-84" value="get lenght of cvvEntry" style="whiteSpace=wrap;html=1;strokeWidth=2;" vertex="1" parent="WIyWlLk6GJQsqaUBKTNV-1">
          <mxGeometry x="450" y="570" width="120" height="60" as="geometry" />
        </mxCell>
        <mxCell id="QB1ZzylPtEArZ7ZQtuXs-85" value="no" style="edgeStyle=orthogonalEdgeStyle;rounded=0;orthogonalLoop=1;jettySize=auto;html=1;" edge="1" parent="WIyWlLk6GJQsqaUBKTNV-1" source="QB1ZzylPtEArZ7ZQtuXs-87" target="QB1ZzylPtEArZ7ZQtuXs-82">
          <mxGeometry relative="1" as="geometry" />
        </mxCell>
        <mxCell id="QB1ZzylPtEArZ7ZQtuXs-86" value="yes" style="edgeStyle=orthogonalEdgeStyle;rounded=0;orthogonalLoop=1;jettySize=auto;html=1;" edge="1" parent="WIyWlLk6GJQsqaUBKTNV-1" source="QB1ZzylPtEArZ7ZQtuXs-87" target="QB1ZzylPtEArZ7ZQtuXs-89">
          <mxGeometry relative="1" as="geometry" />
        </mxCell>
        <mxCell id="QB1ZzylPtEArZ7ZQtuXs-87" value="&lt;div&gt;is length of cvvEntry more&lt;/div&gt;&lt;div&gt;&amp;nbsp;than 3?&lt;/div&gt;" style="rhombus;whiteSpace=wrap;html=1;strokeWidth=2;" vertex="1" parent="WIyWlLk6GJQsqaUBKTNV-1">
          <mxGeometry x="420" y="670" width="180" height="100" as="geometry" />
        </mxCell>
        <mxCell id="QB1ZzylPtEArZ7ZQtuXs-88" style="edgeStyle=orthogonalEdgeStyle;rounded=0;orthogonalLoop=1;jettySize=auto;html=1;" edge="1" parent="WIyWlLk6GJQsqaUBKTNV-1" source="QB1ZzylPtEArZ7ZQtuXs-89">
          <mxGeometry relative="1" as="geometry">
            <mxPoint x="520" y="820" as="targetPoint" />
            <Array as="points">
              <mxPoint x="720" y="820" />
              <mxPoint x="671" y="820" />
            </Array>
          </mxGeometry>
        </mxCell>
        <mxCell id="QB1ZzylPtEArZ7ZQtuXs-89" value="delete all characters after the 3rd one" style="shape=parallelogram;perimeter=parallelogramPerimeter;whiteSpace=wrap;html=1;fixedSize=1;strokeWidth=2;" vertex="1" parent="WIyWlLk6GJQsqaUBKTNV-1">
          <mxGeometry x="650" y="690" width="120" height="60" as="geometry" />
        </mxCell>
        <mxCell id="QB1ZzylPtEArZ7ZQtuXs-90" value="" style="edgeStyle=orthogonalEdgeStyle;rounded=0;orthogonalLoop=1;jettySize=auto;html=1;" edge="1" parent="WIyWlLk6GJQsqaUBKTNV-1" source="QB1ZzylPtEArZ7ZQtuXs-91" target="QB1ZzylPtEArZ7ZQtuXs-94">
          <mxGeometry relative="1" as="geometry" />
        </mxCell>
        <mxCell id="QB1ZzylPtEArZ7ZQtuXs-91" value="&lt;div&gt;validate_date_length&lt;/div&gt;" style="strokeWidth=2;html=1;shape=mxgraph.flowchart.terminator;whiteSpace=wrap;" vertex="1" parent="WIyWlLk6GJQsqaUBKTNV-1">
          <mxGeometry x="800" y="480" width="140" height="60" as="geometry" />
        </mxCell>
        <mxCell id="QB1ZzylPtEArZ7ZQtuXs-92" value="end" style="strokeWidth=2;html=1;shape=mxgraph.flowchart.terminator;whiteSpace=wrap;" vertex="1" parent="WIyWlLk6GJQsqaUBKTNV-1">
          <mxGeometry x="820" y="850" width="100" height="60" as="geometry" />
        </mxCell>
        <mxCell id="QB1ZzylPtEArZ7ZQtuXs-93" value="" style="edgeStyle=orthogonalEdgeStyle;rounded=0;orthogonalLoop=1;jettySize=auto;html=1;" edge="1" parent="WIyWlLk6GJQsqaUBKTNV-1" source="QB1ZzylPtEArZ7ZQtuXs-94" target="QB1ZzylPtEArZ7ZQtuXs-97">
          <mxGeometry relative="1" as="geometry" />
        </mxCell>
        <mxCell id="QB1ZzylPtEArZ7ZQtuXs-94" value="get lenght of dateEntry" style="whiteSpace=wrap;html=1;strokeWidth=2;" vertex="1" parent="WIyWlLk6GJQsqaUBKTNV-1">
          <mxGeometry x="810" y="570" width="120" height="60" as="geometry" />
        </mxCell>
        <mxCell id="QB1ZzylPtEArZ7ZQtuXs-95" value="no" style="edgeStyle=orthogonalEdgeStyle;rounded=0;orthogonalLoop=1;jettySize=auto;html=1;" edge="1" parent="WIyWlLk6GJQsqaUBKTNV-1" source="QB1ZzylPtEArZ7ZQtuXs-97" target="QB1ZzylPtEArZ7ZQtuXs-92">
          <mxGeometry relative="1" as="geometry" />
        </mxCell>
        <mxCell id="QB1ZzylPtEArZ7ZQtuXs-96" value="yes" style="edgeStyle=orthogonalEdgeStyle;rounded=0;orthogonalLoop=1;jettySize=auto;html=1;" edge="1" parent="WIyWlLk6GJQsqaUBKTNV-1" source="QB1ZzylPtEArZ7ZQtuXs-97" target="QB1ZzylPtEArZ7ZQtuXs-99">
          <mxGeometry relative="1" as="geometry" />
        </mxCell>
        <mxCell id="QB1ZzylPtEArZ7ZQtuXs-97" value="&lt;div&gt;is length of cvvEntry more&lt;/div&gt;&lt;div&gt;&amp;nbsp;than 5?&lt;/div&gt;" style="rhombus;whiteSpace=wrap;html=1;strokeWidth=2;" vertex="1" parent="WIyWlLk6GJQsqaUBKTNV-1">
          <mxGeometry x="780" y="670" width="180" height="100" as="geometry" />
        </mxCell>
        <mxCell id="QB1ZzylPtEArZ7ZQtuXs-98" style="edgeStyle=orthogonalEdgeStyle;rounded=0;orthogonalLoop=1;jettySize=auto;html=1;" edge="1" parent="WIyWlLk6GJQsqaUBKTNV-1" source="QB1ZzylPtEArZ7ZQtuXs-99">
          <mxGeometry relative="1" as="geometry">
            <mxPoint x="880" y="820" as="targetPoint" />
            <Array as="points">
              <mxPoint x="1080" y="820" />
              <mxPoint x="1031" y="820" />
            </Array>
          </mxGeometry>
        </mxCell>
        <mxCell id="QB1ZzylPtEArZ7ZQtuXs-99" value="delete all characters after the 5th one" style="shape=parallelogram;perimeter=parallelogramPerimeter;whiteSpace=wrap;html=1;fixedSize=1;strokeWidth=2;" vertex="1" parent="WIyWlLk6GJQsqaUBKTNV-1">
          <mxGeometry x="1010" y="690" width="120" height="60" as="geometry" />
        </mxCell>
      </root>
    </mxGraphModel>
  </diagram>
</mxfile>
